<svg xmlns="http://www.w3.org/2000/svg" xmlns:xlink="http://www.w3.org/1999/xlink" width="40" zoomAndPan="magnify" viewBox="0 0 30 104.999996" height="140" preserveAspectRatio="xMidYMid meet" version="1.0"><defs><g/></defs><g fill="#000000" fill-opacity="1"><g transform="translate(6.334111, 16.082494)"><g><path d="M 14.328125 -4.765625 L 14.671875 -5.078125 L 15.578125 -4.1875 C 15.660156 -4.101562 15.703125 -4.023438 15.703125 -3.953125 C 15.703125 -3.878906 15.660156 -3.820312 15.578125 -3.78125 C 15.503906 -3.75 15.328125 -3.6875 15.046875 -3.59375 C 14.722656 -3.082031 14.375 -2.609375 14 -2.171875 C 13.632812 -1.734375 13.210938 -1.332031 12.734375 -0.96875 C 12.785156 -0.945312 12.828125 -0.925781 12.859375 -0.90625 C 12.898438 -0.894531 12.941406 -0.878906 12.984375 -0.859375 C 13.328125 -0.703125 13.65625 -0.570312 13.96875 -0.46875 C 14.289062 -0.363281 14.679688 -0.253906 15.140625 -0.140625 C 15.609375 -0.0351562 16.207031 0.09375 16.9375 0.25 C 16.8125 0.375 16.707031 0.503906 16.625 0.640625 C 16.539062 0.773438 16.425781 1 16.28125 1.3125 C 15.53125 1.144531 14.894531 0.988281 14.375 0.84375 C 13.851562 0.695312 13.394531 0.539062 13 0.375 C 12.613281 0.207031 12.226562 0.015625 11.84375 -0.203125 C 11.832031 -0.222656 11.816406 -0.238281 11.796875 -0.25 C 11.773438 -0.257812 11.75 -0.269531 11.71875 -0.28125 C 11.3125 -0.03125 10.894531 0.191406 10.46875 0.390625 C 10.039062 0.585938 9.570312 0.769531 9.0625 0.9375 C 8.5625 1.113281 7.972656 1.296875 7.296875 1.484375 C 7.253906 1.285156 7.195312 1.109375 7.125 0.953125 C 7.050781 0.804688 6.957031 0.640625 6.84375 0.453125 C 7.757812 0.222656 8.523438 0 9.140625 -0.21875 C 9.765625 -0.4375 10.320312 -0.6875 10.8125 -0.96875 C 10.488281 -1.269531 10.191406 -1.59375 9.921875 -1.9375 C 9.648438 -2.28125 9.398438 -2.644531 9.171875 -3.03125 C 8.273438 -1.769531 7.101562 -0.628906 5.65625 0.390625 C 5.5625 0.210938 5.453125 0.0390625 5.328125 -0.125 C 5.203125 -0.300781 5.09375 -0.425781 5 -0.5 C 5.769531 -1.019531 6.414062 -1.535156 6.9375 -2.046875 C 7.457031 -2.566406 7.953125 -3.1875 8.421875 -3.90625 C 8.640625 -4.238281 8.835938 -4.566406 9.015625 -4.890625 C 9.191406 -5.210938 9.347656 -5.535156 9.484375 -5.859375 L 9.203125 -5.859375 C 8.910156 -5.859375 8.550781 -5.851562 8.125 -5.84375 C 7.707031 -5.84375 7.367188 -5.835938 7.109375 -5.828125 L 7.109375 -6.953125 C 7.367188 -6.941406 7.695312 -6.929688 8.09375 -6.921875 C 8.5 -6.910156 8.867188 -6.90625 9.203125 -6.90625 L 9.875 -6.90625 C 9.9375 -7.164062 10.003906 -7.414062 10.078125 -7.65625 C 10.148438 -7.90625 10.207031 -8.160156 10.25 -8.421875 L 9.046875 -8.421875 C 8.785156 -8.421875 8.488281 -8.421875 8.15625 -8.421875 C 7.832031 -8.421875 7.546875 -8.40625 7.296875 -8.375 L 7.296875 -9.5 C 7.546875 -9.488281 7.832031 -9.476562 8.15625 -9.46875 C 8.488281 -9.46875 8.785156 -9.46875 9.046875 -9.46875 L 13.109375 -9.46875 C 13.367188 -9.851562 13.578125 -10.203125 13.734375 -10.515625 C 13.898438 -10.828125 14.050781 -11.171875 14.1875 -11.546875 C 14.332031 -11.929688 14.484375 -12.394531 14.640625 -12.9375 L 15.890625 -12.4375 C 16.015625 -12.394531 16.078125 -12.335938 16.078125 -12.265625 C 16.078125 -12.191406 16.050781 -12.140625 16 -12.109375 C 15.957031 -12.078125 15.851562 -12.023438 15.6875 -11.953125 C 15.457031 -11.460938 15.234375 -11.023438 15.015625 -10.640625 C 14.796875 -10.265625 14.546875 -9.875 14.265625 -9.46875 L 14.484375 -9.46875 C 14.742188 -9.46875 15.035156 -9.46875 15.359375 -9.46875 C 15.691406 -9.476562 15.984375 -9.488281 16.234375 -9.5 L 16.234375 -8.375 C 15.984375 -8.40625 15.691406 -8.421875 15.359375 -8.421875 C 15.035156 -8.421875 14.742188 -8.421875 14.484375 -8.421875 L 11.390625 -8.421875 C 11.347656 -8.160156 11.289062 -7.90625 11.21875 -7.65625 C 11.144531 -7.414062 11.082031 -7.164062 11.03125 -6.90625 L 14.75 -6.90625 C 15.09375 -6.90625 15.460938 -6.910156 15.859375 -6.921875 C 16.265625 -6.929688 16.597656 -6.941406 16.859375 -6.953125 L 16.859375 -5.828125 C 16.585938 -5.835938 16.238281 -5.84375 15.8125 -5.84375 C 15.394531 -5.851562 15.039062 -5.859375 14.75 -5.859375 L 10.671875 -5.859375 C 10.535156 -5.492188 10.378906 -5.128906 10.203125 -4.765625 Z M 13.84375 -3.765625 L 9.765625 -3.765625 C 10.035156 -3.335938 10.332031 -2.9375 10.65625 -2.5625 C 10.976562 -2.1875 11.347656 -1.851562 11.765625 -1.5625 C 12.585938 -2.175781 13.28125 -2.910156 13.84375 -3.765625 Z M 1 -6.078125 L 0.625 -7.25 C 0.820312 -7.25 1.015625 -7.25 1.203125 -7.25 C 1.398438 -7.257812 1.585938 -7.269531 1.765625 -7.28125 C 1.984375 -7.582031 2.203125 -7.878906 2.421875 -8.171875 C 2.640625 -8.472656 2.84375 -8.773438 3.03125 -9.078125 C 2.601562 -9.484375 2.191406 -9.851562 1.796875 -10.1875 C 1.398438 -10.519531 1.015625 -10.816406 0.640625 -11.078125 L 1.25 -11.90625 C 1.351562 -11.832031 1.453125 -11.765625 1.546875 -11.703125 C 1.640625 -11.640625 1.722656 -11.578125 1.796875 -11.515625 C 2.097656 -12.035156 2.378906 -12.585938 2.640625 -13.171875 C 2.910156 -13.753906 3.109375 -14.238281 3.234375 -14.625 L 4.375 -14.125 C 4.476562 -14.070312 4.53125 -14.015625 4.53125 -13.953125 C 4.53125 -13.828125 4.414062 -13.742188 4.1875 -13.703125 C 4.101562 -13.523438 3.925781 -13.207031 3.65625 -12.75 C 3.382812 -12.300781 3.03125 -11.695312 2.59375 -10.9375 C 2.78125 -10.8125 2.957031 -10.675781 3.125 -10.53125 C 3.289062 -10.394531 3.460938 -10.25 3.640625 -10.09375 C 3.660156 -10.144531 3.679688 -10.191406 3.703125 -10.234375 C 3.734375 -10.273438 3.757812 -10.316406 3.78125 -10.359375 C 4.082031 -10.910156 4.3125 -11.351562 4.46875 -11.6875 C 4.625 -12.019531 4.769531 -12.359375 4.90625 -12.703125 L 6.078125 -12.125 C 6.191406 -12.082031 6.25 -12.023438 6.25 -11.953125 C 6.25 -11.859375 6.140625 -11.773438 5.921875 -11.703125 C 5.554688 -11.085938 5.25 -10.570312 5 -10.15625 C 4.75 -9.738281 4.523438 -9.375 4.328125 -9.0625 C 4.128906 -8.757812 3.929688 -8.472656 3.734375 -8.203125 C 3.535156 -7.941406 3.304688 -7.648438 3.046875 -7.328125 C 3.410156 -7.359375 3.769531 -7.382812 4.125 -7.40625 C 4.476562 -7.4375 4.835938 -7.476562 5.203125 -7.53125 C 5.128906 -7.6875 5.050781 -7.84375 4.96875 -8 C 4.894531 -8.164062 4.8125 -8.332031 4.71875 -8.5 L 5.578125 -9.015625 C 5.847656 -8.609375 6.085938 -8.191406 6.296875 -7.765625 C 6.515625 -7.335938 6.726562 -6.835938 6.9375 -6.265625 L 5.84375 -5.71875 L 5.53125 -6.671875 C 5.332031 -6.640625 5.132812 -6.609375 4.9375 -6.578125 C 4.738281 -6.546875 4.539062 -6.519531 4.34375 -6.5 L 4.34375 -2.171875 C 4.34375 -0.546875 4.359375 0.648438 4.390625 1.421875 L 3.15625 1.421875 C 3.1875 0.648438 3.203125 -0.546875 3.203125 -2.171875 L 3.203125 -6.3125 C 2.921875 -6.28125 2.640625 -6.242188 2.359375 -6.203125 C 2.078125 -6.160156 1.804688 -6.125 1.546875 -6.09375 C 1.421875 -5.925781 1.3125 -5.84375 1.21875 -5.84375 C 1.125 -5.84375 1.050781 -5.921875 1 -6.078125 Z M 4.78125 -4.859375 L 5.671875 -5.34375 C 5.859375 -5.050781 6.007812 -4.800781 6.125 -4.59375 C 6.238281 -4.382812 6.335938 -4.179688 6.421875 -3.984375 C 6.515625 -3.796875 6.609375 -3.582031 6.703125 -3.34375 C 6.796875 -3.113281 6.898438 -2.816406 7.015625 -2.453125 L 5.921875 -2 C 5.773438 -2.488281 5.644531 -2.898438 5.53125 -3.234375 C 5.425781 -3.566406 5.3125 -3.859375 5.1875 -4.109375 C 5.070312 -4.359375 4.9375 -4.609375 4.78125 -4.859375 Z M 15.609375 -13.53125 L 15.328125 -13.53125 C 14.648438 -13.375 14.015625 -13.234375 13.421875 -13.109375 C 12.835938 -12.992188 12.242188 -12.890625 11.640625 -12.796875 C 11.046875 -12.703125 10.390625 -12.609375 9.671875 -12.515625 C 8.960938 -12.421875 8.140625 -12.320312 7.203125 -12.21875 C 7.140625 -12.4375 7.070312 -12.617188 7 -12.765625 C 6.9375 -12.910156 6.859375 -13.070312 6.765625 -13.25 C 7.859375 -13.34375 8.832031 -13.441406 9.6875 -13.546875 C 10.550781 -13.660156 11.398438 -13.800781 12.234375 -13.96875 C 13.078125 -14.144531 13.988281 -14.359375 14.96875 -14.609375 L 15.78125 -13.890625 C 15.851562 -13.847656 15.890625 -13.789062 15.890625 -13.71875 C 15.890625 -13.59375 15.796875 -13.53125 15.609375 -13.53125 Z M 1.359375 -5 L 2.453125 -4.765625 C 2.578125 -4.722656 2.640625 -4.660156 2.640625 -4.578125 C 2.640625 -4.503906 2.613281 -4.445312 2.5625 -4.40625 L 2.421875 -4.328125 C 2.367188 -3.660156 2.304688 -3.070312 2.234375 -2.5625 C 2.160156 -2.050781 2.0625 -1.582031 1.9375 -1.15625 C 1.820312 -0.738281 1.671875 -0.304688 1.484375 0.140625 C 1.160156 -0.078125 0.800781 -0.257812 0.40625 -0.40625 C 0.644531 -0.914062 0.832031 -1.394531 0.96875 -1.84375 C 1.113281 -2.300781 1.210938 -2.773438 1.265625 -3.265625 C 1.328125 -3.753906 1.359375 -4.304688 1.359375 -4.921875 Z M 7.765625 -11.875 L 8.6875 -12.359375 C 8.914062 -12.066406 9.132812 -11.734375 9.34375 -11.359375 C 9.550781 -10.992188 9.769531 -10.5625 10 -10.0625 L 8.90625 -9.53125 C 8.695312 -10.050781 8.507812 -10.476562 8.34375 -10.8125 C 8.1875 -11.144531 7.992188 -11.5 7.765625 -11.875 Z M 10.5625 -12.21875 L 11.515625 -12.671875 C 11.941406 -12.085938 12.367188 -11.296875 12.796875 -10.296875 L 11.671875 -9.8125 C 11.546875 -10.207031 11.394531 -10.585938 11.21875 -10.953125 C 11.050781 -11.328125 10.832031 -11.75 10.5625 -12.21875 Z M 10.5625 -12.21875 "/></g></g></g><g fill="#000000" fill-opacity="1"><g transform="translate(6.334111, 32.926237)"><g><path d="M 10.15625 -11.21875 L 9.28125 -10.375 C 8.863281 -10.644531 8.4375 -10.835938 8 -10.953125 C 7.5625 -11.066406 7.050781 -11.125 6.46875 -11.125 C 5.664062 -11.125 5.265625 -10.835938 5.265625 -10.265625 C 5.265625 -10.066406 5.316406 -9.835938 5.421875 -9.578125 C 5.523438 -9.328125 5.707031 -8.96875 5.96875 -8.5 C 6.050781 -8.539062 6.253906 -8.628906 6.578125 -8.765625 C 6.898438 -8.910156 7.363281 -9.101562 7.96875 -9.34375 C 8.71875 -9.65625 9.347656 -9.914062 9.859375 -10.125 C 10.378906 -10.332031 10.828125 -10.488281 11.203125 -10.59375 C 11.585938 -10.695312 11.941406 -10.769531 12.265625 -10.8125 C 12.585938 -10.851562 12.9375 -10.875 13.3125 -10.875 C 14.15625 -10.875 14.828125 -10.648438 15.328125 -10.203125 C 15.828125 -9.753906 16.078125 -9.160156 16.078125 -8.421875 C 16.078125 -7.398438 15.613281 -6.613281 14.6875 -6.0625 C 13.769531 -5.507812 12.472656 -5.234375 10.796875 -5.234375 C 10.578125 -5.234375 10.367188 -5.238281 10.171875 -5.25 C 9.972656 -5.257812 9.703125 -5.28125 9.359375 -5.3125 C 9.367188 -5.382812 9.375 -5.441406 9.375 -5.484375 C 9.375 -5.523438 9.375 -5.570312 9.375 -5.625 C 9.375 -5.800781 9.367188 -5.953125 9.359375 -6.078125 C 9.347656 -6.210938 9.320312 -6.375 9.28125 -6.5625 C 9.6875 -6.519531 10.015625 -6.484375 10.265625 -6.453125 C 10.515625 -6.429688 10.820312 -6.421875 11.1875 -6.421875 C 12.394531 -6.421875 13.3125 -6.59375 13.9375 -6.9375 C 14.570312 -7.289062 14.890625 -7.804688 14.890625 -8.484375 C 14.890625 -8.953125 14.738281 -9.289062 14.4375 -9.5 C 14.144531 -9.707031 13.691406 -9.8125 13.078125 -9.8125 C 12.773438 -9.8125 12.476562 -9.789062 12.1875 -9.75 C 11.90625 -9.707031 11.582031 -9.632812 11.21875 -9.53125 C 10.863281 -9.425781 10.4375 -9.273438 9.9375 -9.078125 C 9.4375 -8.890625 8.8125 -8.640625 8.0625 -8.328125 C 7.78125 -8.210938 7.535156 -8.101562 7.328125 -8 C 7.117188 -7.90625 6.828125 -7.769531 6.453125 -7.59375 C 6.734375 -7.0625 7.164062 -6.113281 7.75 -4.75 C 8.34375 -3.394531 9.082031 -1.632812 9.96875 0.53125 L 8.71875 1.015625 C 8.113281 -0.722656 7.546875 -2.242188 7.015625 -3.546875 C 6.492188 -4.859375 5.957031 -6.039062 5.40625 -7.09375 L 3.6875 -6.25 C 3.5 -6.15625 3.351562 -6.082031 3.25 -6.03125 C 3.144531 -5.976562 3.035156 -5.925781 2.921875 -5.875 C 2.816406 -5.820312 2.640625 -5.738281 2.390625 -5.625 C 2.253906 -5.550781 2.144531 -5.492188 2.0625 -5.453125 C 1.976562 -5.410156 1.828125 -5.332031 1.609375 -5.21875 L 1 -6.5625 C 1.25 -6.65625 1.476562 -6.734375 1.6875 -6.796875 C 1.894531 -6.867188 2.054688 -6.929688 2.171875 -6.984375 C 2.460938 -7.085938 2.691406 -7.171875 2.859375 -7.234375 C 3.035156 -7.296875 3.207031 -7.359375 3.375 -7.421875 C 3.539062 -7.492188 3.738281 -7.578125 3.96875 -7.671875 C 4.195312 -7.765625 4.507812 -7.890625 4.90625 -8.046875 C 4.875 -8.117188 4.84375 -8.179688 4.8125 -8.234375 C 4.789062 -8.296875 4.734375 -8.414062 4.640625 -8.59375 C 4.554688 -8.769531 4.410156 -9.054688 4.203125 -9.453125 C 4.054688 -9.734375 3.984375 -10.039062 3.984375 -10.375 C 3.984375 -10.90625 4.1875 -11.320312 4.59375 -11.625 C 5.007812 -11.925781 5.570312 -12.078125 6.28125 -12.078125 C 6.5625 -12.078125 6.875 -12.050781 7.21875 -12 C 7.5625 -11.957031 7.847656 -11.894531 8.078125 -11.8125 C 8.210938 -11.78125 8.3125 -11.753906 8.375 -11.734375 C 8.4375 -11.710938 8.492188 -11.703125 8.546875 -11.703125 C 8.140625 -12.265625 7.9375 -12.847656 7.9375 -13.453125 C 7.9375 -13.546875 7.941406 -13.65625 7.953125 -13.78125 C 7.972656 -13.90625 7.992188 -14.039062 8.015625 -14.1875 L 9.046875 -14.09375 C 9.035156 -14 9.023438 -13.90625 9.015625 -13.8125 C 9.015625 -13.71875 9.015625 -13.644531 9.015625 -13.59375 C 9.015625 -13.375 9.039062 -13.164062 9.09375 -12.96875 C 9.15625 -12.769531 9.269531 -12.535156 9.4375 -12.265625 C 9.601562 -11.992188 9.84375 -11.644531 10.15625 -11.21875 Z M 10.15625 -11.21875 "/></g></g></g><g fill="#000000" fill-opacity="1"><g transform="translate(6.334111, 51.178741)"><g><path d="M 7.1875 -9.578125 L 7.609375 -9.625 C 7.804688 -9.644531 8.003906 -9.671875 8.203125 -9.703125 C 8.410156 -9.734375 8.632812 -9.75 8.875 -9.75 C 9.414062 -9.75 9.910156 -9.523438 10.359375 -9.078125 C 10.554688 -8.867188 10.695312 -8.65625 10.78125 -8.4375 C 10.875 -8.21875 10.921875 -7.945312 10.921875 -7.625 C 10.921875 -7.03125 10.875 -6.382812 10.78125 -5.6875 C 10.6875 -5 10.554688 -4.320312 10.390625 -3.65625 C 10.234375 -2.988281 10.039062 -2.394531 9.8125 -1.875 C 9.5625 -1.25 9.226562 -0.796875 8.8125 -0.515625 C 8.40625 -0.234375 7.894531 -0.09375 7.28125 -0.09375 C 6.988281 -0.09375 6.710938 -0.109375 6.453125 -0.140625 C 6.191406 -0.179688 5.878906 -0.265625 5.515625 -0.390625 C 5.535156 -0.523438 5.546875 -0.628906 5.546875 -0.703125 C 5.554688 -0.785156 5.5625 -0.882812 5.5625 -1 C 5.570312 -1.125 5.582031 -1.316406 5.59375 -1.578125 C 5.96875 -1.484375 6.285156 -1.410156 6.546875 -1.359375 C 6.804688 -1.316406 7.046875 -1.296875 7.265625 -1.296875 C 7.703125 -1.296875 8.039062 -1.421875 8.28125 -1.671875 C 8.53125 -1.929688 8.769531 -2.398438 9 -3.078125 C 9.132812 -3.535156 9.253906 -4.023438 9.359375 -4.546875 C 9.472656 -5.078125 9.566406 -5.59375 9.640625 -6.09375 C 9.710938 -6.601562 9.75 -7.039062 9.75 -7.40625 C 9.75 -7.8125 9.644531 -8.132812 9.4375 -8.375 C 9.238281 -8.625 8.96875 -8.75 8.625 -8.75 C 8.519531 -8.75 8.410156 -8.742188 8.296875 -8.734375 C 8.179688 -8.734375 8.015625 -8.710938 7.796875 -8.671875 C 7.578125 -8.640625 7.265625 -8.585938 6.859375 -8.515625 C 6.484375 -7.367188 6.097656 -6.3125 5.703125 -5.34375 C 5.304688 -4.382812 4.863281 -3.457031 4.375 -2.5625 C 3.882812 -1.664062 3.316406 -0.734375 2.671875 0.234375 C 2.523438 0.0351562 2.375 -0.117188 2.21875 -0.234375 C 2.0625 -0.347656 1.851562 -0.460938 1.59375 -0.578125 C 2.0625 -1.179688 2.472656 -1.753906 2.828125 -2.296875 C 3.179688 -2.847656 3.507812 -3.414062 3.8125 -4 C 4.125 -4.582031 4.421875 -5.222656 4.703125 -5.921875 C 4.992188 -6.617188 5.304688 -7.414062 5.640625 -8.3125 C 4.867188 -8.175781 4.175781 -8.050781 3.5625 -7.9375 C 2.957031 -7.832031 2.4375 -7.734375 2 -7.640625 L 1.75 -8.921875 C 2.050781 -8.941406 2.328125 -8.960938 2.578125 -8.984375 C 2.835938 -9.003906 3.117188 -9.03125 3.421875 -9.0625 C 3.722656 -9.101562 4.078125 -9.148438 4.484375 -9.203125 C 4.890625 -9.253906 5.390625 -9.316406 5.984375 -9.390625 C 6.140625 -9.867188 6.28125 -10.363281 6.40625 -10.875 C 6.539062 -11.382812 6.660156 -11.863281 6.765625 -12.3125 C 6.878906 -12.769531 6.953125 -13.144531 6.984375 -13.4375 L 8.203125 -13.125 C 8.378906 -13.09375 8.46875 -13.015625 8.46875 -12.890625 C 8.46875 -12.765625 8.332031 -12.65625 8.0625 -12.5625 C 8 -12.28125 7.941406 -12.039062 7.890625 -11.84375 C 7.835938 -11.65625 7.78125 -11.46875 7.71875 -11.28125 C 7.664062 -11.09375 7.597656 -10.867188 7.515625 -10.609375 C 7.441406 -10.347656 7.332031 -10.003906 7.1875 -9.578125 Z M 11.671875 -9.28125 L 12.3125 -10.15625 C 13.019531 -9.707031 13.628906 -9.257812 14.140625 -8.8125 C 14.660156 -8.375 15.140625 -7.894531 15.578125 -7.375 C 16.023438 -6.851562 16.472656 -6.242188 16.921875 -5.546875 L 15.859375 -4.6875 C 14.828125 -6.550781 13.429688 -8.082031 11.671875 -9.28125 Z M 11.671875 -9.28125 "/></g></g></g><g fill="#000000" fill-opacity="1"><g transform="translate(6.334111, 67.926237)"><g><path d="M 11.265625 -7.90625 L 11.9375 -7.234375 C 11.6875 -7.015625 11.523438 -6.820312 11.453125 -6.65625 C 11.378906 -6.5 11.34375 -6.269531 11.34375 -5.96875 C 11.34375 -5.757812 11.351562 -5.546875 11.375 -5.328125 C 11.394531 -5.109375 11.4375 -4.796875 11.5 -4.390625 C 11.53125 -4.148438 11.554688 -3.96875 11.578125 -3.84375 C 11.597656 -3.71875 11.617188 -3.519531 11.640625 -3.25 C 11.648438 -3.144531 11.65625 -3.078125 11.65625 -3.046875 C 11.664062 -3.023438 11.675781 -2.96875 11.6875 -2.875 C 12.1875 -2.664062 12.628906 -2.457031 13.015625 -2.25 C 13.398438 -2.050781 13.78125 -1.835938 14.15625 -1.609375 C 14.539062 -1.378906 14.960938 -1.097656 15.421875 -0.765625 C 15.210938 -0.617188 15.046875 -0.476562 14.921875 -0.34375 C 14.804688 -0.21875 14.679688 -0.0195312 14.546875 0.25 C 14.160156 -0.0820312 13.816406 -0.359375 13.515625 -0.578125 C 13.210938 -0.804688 12.914062 -1.007812 12.625 -1.1875 C 12.34375 -1.375 12.03125 -1.554688 11.6875 -1.734375 C 11.664062 -1.335938 11.628906 -1.03125 11.578125 -0.8125 C 11.523438 -0.59375 11.445312 -0.398438 11.34375 -0.234375 C 10.875 0.503906 10.003906 0.875 8.734375 0.875 C 7.847656 0.875 7.144531 0.679688 6.625 0.296875 C 6.113281 -0.0859375 5.859375 -0.617188 5.859375 -1.296875 C 5.859375 -1.953125 6.113281 -2.488281 6.625 -2.90625 C 7.132812 -3.320312 7.78125 -3.53125 8.5625 -3.53125 C 8.882812 -3.53125 9.195312 -3.507812 9.5 -3.46875 C 9.8125 -3.425781 10.148438 -3.359375 10.515625 -3.265625 C 10.441406 -3.847656 10.378906 -4.40625 10.328125 -4.9375 C 10.273438 -5.46875 10.25 -5.832031 10.25 -6.03125 C 10.25 -6.457031 10.328125 -6.804688 10.484375 -7.078125 C 10.648438 -7.359375 10.910156 -7.632812 11.265625 -7.90625 Z M 10.5625 -2.203125 C 10.25 -2.316406 9.921875 -2.40625 9.578125 -2.46875 C 9.234375 -2.539062 8.894531 -2.578125 8.5625 -2.578125 C 8.09375 -2.578125 7.707031 -2.460938 7.40625 -2.234375 C 7.101562 -2.003906 6.953125 -1.707031 6.953125 -1.34375 C 6.953125 -0.988281 7.109375 -0.703125 7.421875 -0.484375 C 7.742188 -0.273438 8.1875 -0.171875 8.75 -0.171875 C 9.5625 -0.171875 10.097656 -0.398438 10.359375 -0.859375 C 10.453125 -1.035156 10.515625 -1.3125 10.546875 -1.6875 C 10.554688 -1.769531 10.5625 -1.851562 10.5625 -1.9375 C 10.5625 -2.03125 10.5625 -2.117188 10.5625 -2.203125 Z M 6.984375 -14.1875 L 8.171875 -13.796875 C 8.328125 -13.734375 8.40625 -13.660156 8.40625 -13.578125 C 8.40625 -13.460938 8.285156 -13.351562 8.046875 -13.25 L 7.265625 -11.046875 C 7.691406 -11.140625 8.09375 -11.25 8.46875 -11.375 C 8.851562 -11.5 9.207031 -11.640625 9.53125 -11.796875 L 10.015625 -10.78125 C 9.460938 -10.5625 8.941406 -10.382812 8.453125 -10.25 C 7.960938 -10.113281 7.425781 -10 6.84375 -9.90625 C 6.476562 -8.882812 5.992188 -7.710938 5.390625 -6.390625 C 5.234375 -6.046875 5.097656 -5.753906 4.984375 -5.515625 C 4.867188 -5.273438 4.753906 -5.050781 4.640625 -4.84375 C 4.535156 -4.632812 4.410156 -4.40625 4.265625 -4.15625 C 4.128906 -3.90625 3.953125 -3.601562 3.734375 -3.25 C 3.515625 -2.894531 3.242188 -2.445312 2.921875 -1.90625 C 2.734375 -2.082031 2.570312 -2.21875 2.4375 -2.3125 C 2.300781 -2.40625 2.109375 -2.503906 1.859375 -2.609375 C 2.597656 -3.648438 3.28125 -4.753906 3.90625 -5.921875 C 4.53125 -7.097656 5.113281 -8.378906 5.65625 -9.765625 C 5.375 -9.753906 5.144531 -9.742188 4.96875 -9.734375 C 4.800781 -9.722656 4.648438 -9.710938 4.515625 -9.703125 C 4.378906 -9.691406 4.207031 -9.6875 4 -9.6875 C 3.757812 -9.6875 3.539062 -9.691406 3.34375 -9.703125 C 3.144531 -9.722656 2.875 -9.738281 2.53125 -9.75 L 2.484375 -10.90625 C 2.859375 -10.851562 3.191406 -10.816406 3.484375 -10.796875 C 3.785156 -10.785156 4.117188 -10.78125 4.484375 -10.78125 C 4.742188 -10.78125 4.976562 -10.785156 5.1875 -10.796875 C 5.40625 -10.804688 5.695312 -10.832031 6.0625 -10.875 C 6.320312 -11.613281 6.53125 -12.269531 6.6875 -12.84375 C 6.851562 -13.414062 6.953125 -13.863281 6.984375 -14.1875 Z M 10.96875 -9.09375 L 11.265625 -10.09375 C 12.148438 -9.945312 12.914062 -9.75 13.5625 -9.5 C 14.21875 -9.257812 14.863281 -8.929688 15.5 -8.515625 L 14.921875 -7.5 C 14.285156 -7.9375 13.65625 -8.28125 13.03125 -8.53125 C 12.414062 -8.789062 11.726562 -8.976562 10.96875 -9.09375 Z M 10.96875 -9.09375 "/></g></g></g><g fill="#000000" fill-opacity="1"><g transform="translate(6.334111, 85.942487)"><g><path d="M 15.046875 -11.4375 L 10.15625 -11.4375 C 9.9375 -11 9.710938 -10.566406 9.484375 -10.140625 C 9.253906 -9.710938 9.003906 -9.289062 8.734375 -8.875 C 9.554688 -8.914062 10.378906 -8.972656 11.203125 -9.046875 C 12.023438 -9.128906 12.847656 -9.222656 13.671875 -9.328125 C 13.390625 -9.640625 13 -10.03125 12.5 -10.5 L 13.21875 -11.203125 C 13.71875 -10.796875 14.128906 -10.429688 14.453125 -10.109375 C 14.773438 -9.796875 15.066406 -9.476562 15.328125 -9.15625 C 15.585938 -8.84375 15.863281 -8.457031 16.15625 -8 L 15.109375 -7.265625 C 14.816406 -7.765625 14.550781 -8.175781 14.3125 -8.5 C 13.800781 -8.414062 13.347656 -8.347656 12.953125 -8.296875 C 12.566406 -8.242188 12.160156 -8.191406 11.734375 -8.140625 C 11.316406 -8.085938 10.796875 -8.03125 10.171875 -7.96875 C 8.523438 -7.789062 7.265625 -7.648438 6.390625 -7.546875 C 6.242188 -7.359375 6.140625 -7.265625 6.078125 -7.265625 C 5.972656 -7.265625 5.882812 -7.351562 5.8125 -7.53125 L 5.421875 -8.703125 C 5.796875 -8.722656 6.15625 -8.738281 6.5 -8.75 C 6.84375 -8.769531 7.171875 -8.785156 7.484375 -8.796875 C 7.753906 -9.222656 8 -9.65625 8.21875 -10.09375 C 8.445312 -10.539062 8.65625 -10.988281 8.84375 -11.4375 L 6.8125 -11.4375 C 6.550781 -11.4375 6.253906 -11.429688 5.921875 -11.421875 C 5.585938 -11.421875 5.300781 -11.414062 5.0625 -11.40625 L 5.0625 -12.5625 C 5.300781 -12.550781 5.585938 -12.539062 5.921875 -12.53125 C 6.253906 -12.53125 6.550781 -12.53125 6.8125 -12.53125 L 9.875 -12.53125 L 9.875 -13.65625 L 9.859375 -14.765625 L 11.078125 -14.640625 C 11.296875 -14.628906 11.40625 -14.570312 11.40625 -14.46875 C 11.40625 -14.363281 11.289062 -14.25 11.0625 -14.125 L 11.0625 -12.53125 L 15.046875 -12.53125 C 15.304688 -12.53125 15.597656 -12.53125 15.921875 -12.53125 C 16.253906 -12.539062 16.539062 -12.550781 16.78125 -12.5625 L 16.78125 -11.40625 C 16.539062 -11.414062 16.253906 -11.421875 15.921875 -11.421875 C 15.597656 -11.429688 15.304688 -11.4375 15.046875 -11.4375 Z M 13.84375 -6.234375 L 13.84375 -0.546875 C 13.84375 -0.390625 13.882812 -0.285156 13.96875 -0.234375 C 14.0625 -0.191406 14.265625 -0.171875 14.578125 -0.171875 C 14.847656 -0.171875 15.054688 -0.179688 15.203125 -0.203125 C 15.347656 -0.234375 15.453125 -0.304688 15.515625 -0.421875 C 15.578125 -0.546875 15.613281 -0.742188 15.625 -1.015625 C 15.644531 -1.296875 15.664062 -1.6875 15.6875 -2.1875 C 15.863281 -2.101562 16.03125 -2.03125 16.1875 -1.96875 C 16.351562 -1.914062 16.582031 -1.847656 16.875 -1.765625 C 16.832031 -1.160156 16.785156 -0.691406 16.734375 -0.359375 C 16.679688 -0.0351562 16.609375 0.195312 16.515625 0.34375 C 16.421875 0.488281 16.289062 0.613281 16.125 0.71875 C 15.976562 0.789062 15.769531 0.835938 15.5 0.859375 C 15.238281 0.890625 14.867188 0.90625 14.390625 0.90625 C 13.742188 0.90625 13.304688 0.828125 13.078125 0.671875 C 12.847656 0.515625 12.734375 0.203125 12.734375 -0.265625 L 12.734375 -6.234375 C 12.734375 -6.453125 12.726562 -6.664062 12.71875 -6.875 C 12.71875 -7.082031 12.710938 -7.25 12.703125 -7.375 L 13.875 -7.25 C 14.082031 -7.238281 14.1875 -7.175781 14.1875 -7.0625 C 14.1875 -6.957031 14.078125 -6.84375 13.859375 -6.71875 C 13.847656 -6.519531 13.84375 -6.394531 13.84375 -6.34375 C 13.84375 -6.300781 13.84375 -6.265625 13.84375 -6.234375 Z M 7.015625 -7.3125 L 8.3125 -7.171875 C 8.539062 -7.148438 8.65625 -7.082031 8.65625 -6.96875 C 8.65625 -6.863281 8.539062 -6.765625 8.3125 -6.671875 L 8.3125 -5.671875 C 8.300781 -4.617188 8.25 -3.753906 8.15625 -3.078125 C 8.0625 -2.410156 7.898438 -1.851562 7.671875 -1.40625 C 7.441406 -0.957031 7.125 -0.535156 6.71875 -0.140625 C 6.363281 0.203125 5.984375 0.488281 5.578125 0.71875 C 5.171875 0.945312 4.628906 1.191406 3.953125 1.453125 C 3.867188 1.253906 3.800781 1.101562 3.75 1 C 3.695312 0.90625 3.640625 0.8125 3.578125 0.71875 C 3.523438 0.632812 3.441406 0.519531 3.328125 0.375 C 4.046875 0.113281 4.609375 -0.132812 5.015625 -0.375 C 5.429688 -0.613281 5.769531 -0.894531 6.03125 -1.21875 C 6.320312 -1.570312 6.546875 -1.9375 6.703125 -2.3125 C 6.867188 -2.695312 6.984375 -3.160156 7.046875 -3.703125 C 7.109375 -4.242188 7.140625 -4.9375 7.140625 -5.78125 C 7.140625 -6.132812 7.128906 -6.414062 7.109375 -6.625 C 7.097656 -6.84375 7.066406 -7.070312 7.015625 -7.3125 Z M 10.953125 -6.65625 L 10.9375 -5 L 10.9375 -1.734375 C 10.9375 -1.160156 10.941406 -0.65625 10.953125 -0.21875 C 10.960938 0.21875 10.972656 0.566406 10.984375 0.828125 L 9.765625 0.828125 C 9.785156 0.523438 9.796875 0.160156 9.796875 -0.265625 C 9.796875 -0.691406 9.796875 -1.179688 9.796875 -1.734375 L 9.796875 -5 C 9.796875 -6.070312 9.78125 -6.835938 9.75 -7.296875 L 10.984375 -7.171875 C 11.179688 -7.148438 11.28125 -7.09375 11.28125 -7 C 11.28125 -6.914062 11.171875 -6.800781 10.953125 -6.65625 Z M 1.5 -13.5625 L 2.390625 -14.3125 C 2.679688 -14.070312 2.9375 -13.84375 3.15625 -13.625 C 3.375 -13.414062 3.582031 -13.191406 3.78125 -12.953125 C 3.988281 -12.710938 4.222656 -12.429688 4.484375 -12.109375 L 3.4375 -11.28125 C 3.207031 -11.625 2.992188 -11.914062 2.796875 -12.15625 C 2.609375 -12.40625 2.414062 -12.632812 2.21875 -12.84375 C 2.019531 -13.0625 1.78125 -13.300781 1.5 -13.5625 Z M 0.6875 -9.71875 L 1.59375 -10.46875 C 2.070312 -10.0625 2.460938 -9.695312 2.765625 -9.375 C 3.078125 -9.050781 3.40625 -8.679688 3.75 -8.265625 L 2.6875 -7.40625 C 2.425781 -7.757812 2.195312 -8.054688 2 -8.296875 C 1.8125 -8.535156 1.617188 -8.765625 1.421875 -8.984375 C 1.222656 -9.203125 0.976562 -9.445312 0.6875 -9.71875 Z M 3.75 -6.609375 L 4.703125 -5.75 C 4.460938 -5.09375 4.253906 -4.523438 4.078125 -4.046875 C 3.898438 -3.578125 3.734375 -3.148438 3.578125 -2.765625 C 3.421875 -2.378906 3.257812 -1.992188 3.09375 -1.609375 C 2.9375 -1.222656 2.742188 -0.785156 2.515625 -0.296875 C 2.390625 -0.0234375 2.300781 0.171875 2.25 0.296875 C 2.195312 0.429688 2.128906 0.601562 2.046875 0.8125 L 2.0625 0.984375 C 2.082031 1.117188 2.023438 1.1875 1.890625 1.1875 C 1.816406 1.1875 1.738281 1.144531 1.65625 1.0625 L 0.71875 0.1875 C 1.15625 -0.457031 1.632812 -1.363281 2.15625 -2.53125 C 2.675781 -3.695312 3.207031 -5.054688 3.75 -6.609375 Z M 3.75 -6.609375 "/></g></g></g><g fill="#000000" fill-opacity="1"><g transform="translate(6.334111, 103.521243)"><g><path d="M 4.921875 -6.359375 L 4.9375 -7.40625 C 4.945312 -7.707031 4.953125 -7.925781 4.953125 -8.0625 C 4.953125 -8.207031 4.953125 -8.335938 4.953125 -8.453125 C 4.898438 -8.441406 4.851562 -8.425781 4.8125 -8.40625 C 4.769531 -8.382812 4.671875 -8.351562 4.515625 -8.3125 C 4.359375 -8.269531 4.101562 -8.1875 3.75 -8.0625 C 3.476562 -7.976562 3.226562 -7.894531 3 -7.8125 C 2.78125 -7.726562 2.503906 -7.613281 2.171875 -7.46875 L 1.78125 -8.75 C 2.082031 -8.8125 2.328125 -8.859375 2.515625 -8.890625 C 2.710938 -8.929688 2.90625 -8.972656 3.09375 -9.015625 C 3.28125 -9.066406 3.515625 -9.132812 3.796875 -9.21875 C 4.078125 -9.3125 4.460938 -9.429688 4.953125 -9.578125 L 4.953125 -11.234375 C 4.953125 -11.691406 4.945312 -12.050781 4.9375 -12.3125 C 4.9375 -12.570312 4.929688 -12.796875 4.921875 -12.984375 C 4.910156 -13.171875 4.890625 -13.375 4.859375 -13.59375 L 6.125 -13.453125 C 6.28125 -13.429688 6.359375 -13.375 6.359375 -13.28125 C 6.359375 -13.207031 6.28125 -13.117188 6.125 -13.015625 C 6.101562 -12.515625 6.085938 -12.09375 6.078125 -11.75 C 6.066406 -11.40625 6.054688 -11.09375 6.046875 -10.8125 C 6.035156 -10.53125 6.023438 -10.222656 6.015625 -9.890625 C 6.109375 -9.941406 6.179688 -9.988281 6.234375 -10.03125 C 6.285156 -10.082031 6.359375 -10.160156 6.453125 -10.265625 L 7.203125 -9.578125 C 7.296875 -9.484375 7.34375 -9.398438 7.34375 -9.328125 C 7.34375 -9.210938 7.21875 -9.128906 6.96875 -9.078125 C 6.78125 -8.878906 6.617188 -8.710938 6.484375 -8.578125 C 6.359375 -8.441406 6.195312 -8.257812 6 -8.03125 C 5.988281 -7.707031 5.984375 -7.457031 5.984375 -7.28125 C 5.984375 -7.101562 5.976562 -6.90625 5.96875 -6.6875 C 6.320312 -7.101562 6.609375 -7.4375 6.828125 -7.6875 C 7.046875 -7.945312 7.226562 -8.160156 7.375 -8.328125 C 7.519531 -8.492188 7.644531 -8.632812 7.75 -8.75 C 7.863281 -8.875 7.988281 -9.007812 8.125 -9.15625 C 8.5625 -9.644531 8.941406 -10.019531 9.265625 -10.28125 C 9.585938 -10.539062 9.894531 -10.722656 10.1875 -10.828125 C 10.476562 -10.929688 10.804688 -10.984375 11.171875 -10.984375 C 11.722656 -10.984375 12.15625 -10.84375 12.46875 -10.5625 C 12.78125 -10.289062 12.9375 -9.894531 12.9375 -9.375 C 12.9375 -9.1875 12.925781 -8.976562 12.90625 -8.75 C 12.894531 -8.53125 12.875 -8.289062 12.84375 -8.03125 C 12.675781 -6.582031 12.550781 -5.367188 12.46875 -4.390625 C 12.382812 -3.410156 12.34375 -2.738281 12.34375 -2.375 C 12.34375 -2.082031 12.382812 -1.882812 12.46875 -1.78125 C 12.550781 -1.675781 12.707031 -1.625 12.9375 -1.625 C 13.175781 -1.625 13.429688 -1.671875 13.703125 -1.765625 C 13.972656 -1.867188 14.234375 -2.015625 14.484375 -2.203125 C 14.804688 -2.441406 15.085938 -2.710938 15.328125 -3.015625 C 15.566406 -3.316406 15.84375 -3.753906 16.15625 -4.328125 C 16.269531 -4.171875 16.390625 -4.023438 16.515625 -3.890625 C 16.648438 -3.753906 16.800781 -3.617188 16.96875 -3.484375 C 15.863281 -1.453125 14.488281 -0.4375 12.84375 -0.4375 C 12.238281 -0.4375 11.800781 -0.582031 11.53125 -0.875 C 11.257812 -1.175781 11.125 -1.660156 11.125 -2.328125 C 11.125 -2.546875 11.125 -2.75 11.125 -2.9375 C 11.132812 -3.132812 11.15625 -3.394531 11.1875 -3.71875 C 11.21875 -4.050781 11.265625 -4.515625 11.328125 -5.109375 C 11.390625 -5.703125 11.484375 -6.515625 11.609375 -7.546875 C 11.640625 -7.867188 11.671875 -8.203125 11.703125 -8.546875 C 11.734375 -8.890625 11.75 -9.132812 11.75 -9.28125 C 11.75 -9.738281 11.535156 -9.96875 11.109375 -9.96875 C 10.859375 -9.96875 10.601562 -9.910156 10.34375 -9.796875 C 10.09375 -9.679688 9.804688 -9.476562 9.484375 -9.1875 C 9.171875 -8.894531 8.78125 -8.476562 8.3125 -7.9375 C 8.195312 -7.820312 7.945312 -7.546875 7.5625 -7.109375 C 7.175781 -6.671875 6.644531 -6.085938 5.96875 -5.359375 C 5.976562 -4.503906 5.984375 -3.800781 5.984375 -3.25 C 5.984375 -2.707031 5.984375 -2.265625 5.984375 -1.921875 C 5.992188 -1.578125 6 -1.285156 6 -1.046875 C 6.007812 -0.816406 6.015625 -0.59375 6.015625 -0.375 C 6.023438 -0.15625 6.039062 0.0976562 6.0625 0.390625 L 4.75 0.4375 C 4.75 0.363281 4.757812 -0.0625 4.78125 -0.84375 C 4.800781 -1.632812 4.832031 -2.769531 4.875 -4.25 L 3.59375 -2.484375 C 3.550781 -2.441406 3.476562 -2.351562 3.375 -2.21875 C 3.28125 -2.082031 3.15625 -1.910156 3 -1.703125 C 2.8125 -1.472656 2.664062 -1.296875 2.5625 -1.171875 C 2.46875 -1.046875 2.351562 -0.890625 2.21875 -0.703125 L 1.515625 -1.84375 C 1.890625 -2.238281 2.289062 -2.703125 2.71875 -3.234375 C 3.15625 -3.773438 3.566406 -4.320312 3.953125 -4.875 C 4.347656 -5.425781 4.671875 -5.921875 4.921875 -6.359375 Z M 4.921875 -6.359375 "/></g></g></g></svg>