<svg xmlns="http://www.w3.org/2000/svg" xmlns:xlink="http://www.w3.org/1999/xlink" width="40" zoomAndPan="magnify" viewBox="0 0 30 112.499997" height="150" preserveAspectRatio="xMidYMid meet" version="1.0"><defs><g/></defs><g fill="#000000" fill-opacity="1"><g transform="translate(1.548055, 21.369282)"><g><path d="M 3.25 -10.109375 L 2.203125 -12.078125 C 2.773438 -12.285156 3.234375 -12.453125 3.578125 -12.578125 C 3.929688 -12.703125 4.253906 -12.820312 4.546875 -12.9375 C 4.847656 -13.0625 5.203125 -13.210938 5.609375 -13.390625 C 6.015625 -13.566406 6.554688 -13.8125 7.234375 -14.125 C 8.796875 -14.800781 10.125 -15.332031 11.21875 -15.71875 C 12.320312 -16.101562 13.316406 -16.375 14.203125 -16.53125 C 15.097656 -16.695312 16.007812 -16.78125 16.9375 -16.78125 C 19.289062 -16.78125 21.109375 -16.207031 22.390625 -15.0625 C 23.671875 -13.914062 24.3125 -12.285156 24.3125 -10.171875 C 24.3125 -7.316406 23.117188 -5.097656 20.734375 -3.515625 C 20.046875 -3.066406 19.15625 -2.617188 18.0625 -2.171875 C 16.976562 -1.722656 15.816406 -1.335938 14.578125 -1.015625 C 14.128906 -0.890625 13.625 -0.773438 13.0625 -0.671875 C 12.507812 -0.566406 11.757812 -0.414062 10.8125 -0.21875 C 10.707031 -0.570312 10.597656 -0.863281 10.484375 -1.09375 C 10.378906 -1.332031 10.179688 -1.675781 9.890625 -2.125 C 11.222656 -2.300781 12.359375 -2.484375 13.296875 -2.671875 C 14.234375 -2.859375 15.082031 -3.078125 15.84375 -3.328125 C 16.613281 -3.578125 17.375 -3.875 18.125 -4.21875 C 20.957031 -5.550781 22.375 -7.515625 22.375 -10.109375 C 22.375 -11.703125 21.90625 -12.925781 20.96875 -13.78125 C 20.039062 -14.644531 18.707031 -15.078125 16.96875 -15.078125 C 15.769531 -15.078125 14.546875 -14.90625 13.296875 -14.5625 C 12.046875 -14.226562 10.582031 -13.660156 8.90625 -12.859375 C 7.820312 -12.347656 6.972656 -11.945312 6.359375 -11.65625 C 5.753906 -11.363281 5.28125 -11.132812 4.9375 -10.96875 C 4.601562 -10.8125 4.316406 -10.671875 4.078125 -10.546875 C 3.847656 -10.429688 3.570312 -10.285156 3.25 -10.109375 Z M 3.25 -10.109375 "/></g></g></g><g fill="#000000" fill-opacity="1"><g transform="translate(1.548055, 49.365302)"><g><path d="M 22.109375 -21.296875 L 23.015625 -22.40625 C 23.660156 -22.007812 24.222656 -21.617188 24.703125 -21.234375 C 25.191406 -20.847656 25.769531 -20.335938 26.4375 -19.703125 L 25.359375 -18.5 C 24.941406 -18.945312 24.578125 -19.316406 24.265625 -19.609375 C 23.953125 -19.910156 23.628906 -20.191406 23.296875 -20.453125 C 22.960938 -20.710938 22.566406 -20.992188 22.109375 -21.296875 Z M 3.234375 -10.109375 L 2.171875 -12.078125 C 2.742188 -12.285156 3.207031 -12.453125 3.5625 -12.578125 C 3.914062 -12.703125 4.238281 -12.820312 4.53125 -12.9375 C 4.820312 -13.0625 5.171875 -13.210938 5.578125 -13.390625 C 5.984375 -13.566406 6.523438 -13.8125 7.203125 -14.125 C 8.765625 -14.800781 10.097656 -15.332031 11.203125 -15.71875 C 12.304688 -16.101562 13.300781 -16.375 14.1875 -16.53125 C 15.070312 -16.695312 15.984375 -16.78125 16.921875 -16.78125 C 19.265625 -16.78125 21.078125 -16.207031 22.359375 -15.0625 C 23.640625 -13.914062 24.28125 -12.285156 24.28125 -10.171875 C 24.28125 -7.316406 23.085938 -5.097656 20.703125 -3.515625 C 20.023438 -3.066406 19.140625 -2.617188 18.046875 -2.171875 C 16.953125 -1.722656 15.785156 -1.335938 14.546875 -1.015625 C 14.097656 -0.890625 13.59375 -0.773438 13.03125 -0.671875 C 12.476562 -0.566406 11.726562 -0.414062 10.78125 -0.21875 C 10.675781 -0.570312 10.566406 -0.863281 10.453125 -1.09375 C 10.347656 -1.332031 10.15625 -1.675781 9.875 -2.125 C 11.195312 -2.300781 12.328125 -2.484375 13.265625 -2.671875 C 14.210938 -2.859375 15.066406 -3.078125 15.828125 -3.328125 C 16.585938 -3.578125 17.34375 -3.875 18.09375 -4.21875 C 20.925781 -5.550781 22.34375 -7.515625 22.34375 -10.109375 C 22.34375 -11.703125 21.875 -12.925781 20.9375 -13.78125 C 20.007812 -14.644531 18.675781 -15.078125 16.9375 -15.078125 C 15.738281 -15.078125 14.515625 -14.90625 13.265625 -14.5625 C 12.023438 -14.226562 10.5625 -13.660156 8.875 -12.859375 C 7.800781 -12.347656 6.957031 -11.945312 6.34375 -11.65625 C 5.738281 -11.363281 5.265625 -11.132812 4.921875 -10.96875 C 4.578125 -10.8125 4.285156 -10.671875 4.046875 -10.546875 C 3.816406 -10.429688 3.546875 -10.285156 3.234375 -10.109375 Z M 20.109375 -18.953125 L 21.0625 -20.0625 C 21.6875 -19.664062 22.242188 -19.273438 22.734375 -18.890625 C 23.222656 -18.503906 23.789062 -18 24.4375 -17.375 L 23.375 -16.15625 C 22.957031 -16.601562 22.59375 -16.972656 22.28125 -17.265625 C 21.96875 -17.566406 21.644531 -17.847656 21.3125 -18.109375 C 20.976562 -18.367188 20.578125 -18.648438 20.109375 -18.953125 Z M 20.109375 -18.953125 "/></g></g></g><g fill="#000000" fill-opacity="1"><g transform="translate(1.548055, 76.823441)"><g><path d="M 17.9375 -19.703125 L 18.6875 -18.125 C 17.632812 -17.707031 16.757812 -17.378906 16.0625 -17.140625 C 15.375 -16.898438 14.679688 -16.679688 13.984375 -16.484375 C 14.078125 -16.210938 14.15625 -15.984375 14.21875 -15.796875 C 14.289062 -15.609375 14.367188 -15.398438 14.453125 -15.171875 C 14.546875 -14.953125 14.671875 -14.65625 14.828125 -14.28125 C 14.992188 -13.914062 15.222656 -13.421875 15.515625 -12.796875 C 16.503906 -13.160156 17.382812 -13.515625 18.15625 -13.859375 C 18.925781 -14.210938 19.671875 -14.59375 20.390625 -15 L 21.25 -13.4375 C 19.414062 -12.488281 17.753906 -11.773438 16.265625 -11.296875 C 16.765625 -10.378906 17.203125 -9.609375 17.578125 -8.984375 C 17.960938 -8.367188 18.347656 -7.796875 18.734375 -7.265625 C 19.117188 -6.742188 19.585938 -6.140625 20.140625 -5.453125 L 18.640625 -4.1875 C 16.984375 -5.394531 15.023438 -6 12.765625 -6 C 11.492188 -6 10.472656 -5.75 9.703125 -5.25 C 8.929688 -4.757812 8.546875 -4.113281 8.546875 -3.3125 C 8.546875 -2.320312 8.992188 -1.597656 9.890625 -1.140625 C 10.785156 -0.679688 12.195312 -0.453125 14.125 -0.453125 C 14.632812 -0.453125 15.09375 -0.46875 15.5 -0.5 C 15.90625 -0.539062 16.445312 -0.597656 17.125 -0.671875 C 16.820312 -0.00390625 16.671875 0.585938 16.671875 1.109375 L 16.671875 1.3125 C 16.222656 1.332031 15.859375 1.347656 15.578125 1.359375 C 15.304688 1.378906 14.960938 1.390625 14.546875 1.390625 C 13.328125 1.390625 12.316406 1.332031 11.515625 1.21875 C 10.722656 1.101562 10.019531 0.910156 9.40625 0.640625 C 8.582031 0.285156 7.925781 -0.234375 7.4375 -0.921875 C 6.945312 -1.617188 6.703125 -2.378906 6.703125 -3.203125 C 6.703125 -4.523438 7.25 -5.570312 8.34375 -6.34375 C 9.445312 -7.113281 10.953125 -7.5 12.859375 -7.5 C 13.660156 -7.5 14.359375 -7.441406 14.953125 -7.328125 C 15.554688 -7.210938 16.273438 -6.984375 17.109375 -6.640625 C 16.816406 -7.054688 16.582031 -7.394531 16.40625 -7.65625 C 16.238281 -7.914062 16.082031 -8.164062 15.9375 -8.40625 C 15.800781 -8.644531 15.632812 -8.945312 15.4375 -9.3125 C 15.238281 -9.6875 14.976562 -10.175781 14.65625 -10.78125 C 13.78125 -10.53125 12.929688 -10.328125 12.109375 -10.171875 C 11.296875 -10.023438 10.601562 -9.953125 10.03125 -9.953125 C 8.363281 -9.953125 7.53125 -10.601562 7.53125 -11.90625 C 7.53125 -12.125 7.566406 -12.347656 7.640625 -12.578125 C 7.710938 -12.816406 7.835938 -13.113281 8.015625 -13.46875 L 9.5 -12.859375 C 9.3125 -12.546875 9.21875 -12.320312 9.21875 -12.1875 C 9.21875 -11.84375 9.5 -11.671875 10.0625 -11.671875 C 11.039062 -11.671875 12.3125 -11.882812 13.875 -12.3125 L 13.390625 -13.4375 C 13.171875 -13.945312 13.003906 -14.335938 12.890625 -14.609375 C 12.773438 -14.890625 12.675781 -15.132812 12.59375 -15.34375 C 12.519531 -15.550781 12.425781 -15.78125 12.3125 -16.03125 C 11.707031 -15.882812 11.113281 -15.753906 10.53125 -15.640625 C 9.945312 -15.535156 9.25 -15.421875 8.4375 -15.296875 C 7.632812 -15.171875 6.597656 -15.019531 5.328125 -14.84375 L 4.96875 -16.59375 C 5.582031 -16.625 6.304688 -16.691406 7.140625 -16.796875 C 7.972656 -16.910156 8.789062 -17.035156 9.59375 -17.171875 C 10.40625 -17.304688 11.046875 -17.425781 11.515625 -17.53125 C 11.597656 -17.570312 11.65625 -17.59375 11.6875 -17.59375 C 11.726562 -17.59375 11.769531 -17.597656 11.8125 -17.609375 C 11.789062 -17.679688 11.765625 -17.753906 11.734375 -17.828125 C 11.710938 -17.898438 11.664062 -18.050781 11.59375 -18.28125 C 11.519531 -18.519531 11.382812 -18.90625 11.1875 -19.4375 C 11.113281 -19.675781 11.054688 -19.851562 11.015625 -19.96875 C 10.984375 -20.082031 10.90625 -20.335938 10.78125 -20.734375 C 10.726562 -20.953125 10.691406 -21.09375 10.671875 -21.15625 C 10.660156 -21.226562 10.609375 -21.382812 10.515625 -21.625 L 12.578125 -21.828125 C 12.847656 -21.867188 12.984375 -21.753906 12.984375 -21.484375 C 12.984375 -21.410156 12.960938 -21.347656 12.921875 -21.296875 C 12.890625 -21.242188 12.773438 -21.132812 12.578125 -20.96875 C 12.722656 -20.519531 12.832031 -20.148438 12.90625 -19.859375 C 12.976562 -19.578125 13.054688 -19.304688 13.140625 -19.046875 C 13.234375 -18.785156 13.34375 -18.453125 13.46875 -18.046875 C 14.03125 -18.203125 14.519531 -18.351562 14.9375 -18.5 C 15.351562 -18.644531 15.796875 -18.8125 16.265625 -19 C 16.734375 -19.1875 17.289062 -19.421875 17.9375 -19.703125 Z M 17.9375 -19.703125 "/></g></g></g></svg>