<svg xmlns="http://www.w3.org/2000/svg" xmlns:xlink="http://www.w3.org/1999/xlink" width="40" zoomAndPan="magnify" viewBox="0 0 30 112.499997" height="150" preserveAspectRatio="xMidYMid meet" version="1.0"><defs><g/></defs><g fill="#000000" fill-opacity="1"><g transform="translate(-0.306184, 47.159908)"><g><path d="M 3.703125 -11.5 L 2.515625 -13.734375 C 3.160156 -13.984375 3.679688 -14.175781 4.078125 -14.3125 C 4.484375 -14.457031 4.851562 -14.597656 5.1875 -14.734375 C 5.519531 -14.867188 5.914062 -15.035156 6.375 -15.234375 C 6.832031 -15.441406 7.453125 -15.71875 8.234375 -16.0625 C 10.003906 -16.832031 11.515625 -17.4375 12.765625 -17.875 C 14.023438 -18.320312 15.160156 -18.632812 16.171875 -18.8125 C 17.179688 -19 18.21875 -19.09375 19.28125 -19.09375 C 21.945312 -19.09375 24.007812 -18.4375 25.46875 -17.125 C 26.925781 -15.820312 27.65625 -13.96875 27.65625 -11.5625 C 27.65625 -8.320312 26.300781 -5.800781 23.59375 -4 C 22.8125 -3.5 21.796875 -2.992188 20.546875 -2.484375 C 19.304688 -1.972656 17.984375 -1.53125 16.578125 -1.15625 C 16.066406 -1.019531 15.492188 -0.890625 14.859375 -0.765625 C 14.234375 -0.640625 13.378906 -0.46875 12.296875 -0.25 C 12.171875 -0.65625 12.046875 -0.988281 11.921875 -1.25 C 11.804688 -1.519531 11.585938 -1.910156 11.265625 -2.421875 C 12.765625 -2.617188 14.050781 -2.820312 15.125 -3.03125 C 16.195312 -3.25 17.164062 -3.5 18.03125 -3.78125 C 18.894531 -4.070312 19.757812 -4.410156 20.625 -4.796875 C 23.84375 -6.304688 25.453125 -8.539062 25.453125 -11.5 C 25.453125 -13.3125 24.921875 -14.707031 23.859375 -15.6875 C 22.796875 -16.664062 21.273438 -17.15625 19.296875 -17.15625 C 17.929688 -17.15625 16.539062 -16.960938 15.125 -16.578125 C 13.707031 -16.191406 12.039062 -15.539062 10.125 -14.625 C 8.90625 -14.050781 7.945312 -13.59375 7.25 -13.25 C 6.550781 -12.914062 6.007812 -12.65625 5.625 -12.46875 C 5.238281 -12.289062 4.910156 -12.132812 4.640625 -12 C 4.378906 -11.875 4.066406 -11.707031 3.703125 -11.5 Z M 3.703125 -11.5 "/></g></g></g><g fill="#000000" fill-opacity="1"><g transform="translate(-0.306184, 78.72423)"><g><path d="M 17.6875 -23.859375 L 19.734375 -22.609375 C 19.953125 -22.460938 20.0625 -22.300781 20.0625 -22.125 C 20.0625 -21.894531 19.800781 -21.738281 19.28125 -21.65625 C 18.90625 -21.226562 18.378906 -20.65625 17.703125 -19.9375 C 17.035156 -19.226562 16.296875 -18.460938 15.484375 -17.640625 C 14.679688 -16.828125 13.890625 -16.035156 13.109375 -15.265625 C 12.328125 -14.492188 11.640625 -13.832031 11.046875 -13.28125 C 10.535156 -12.8125 10.207031 -12.492188 10.0625 -12.328125 C 9.914062 -12.160156 9.84375 -12.03125 9.84375 -11.9375 C 9.84375 -11.75 10.03125 -11.472656 10.40625 -11.109375 C 12.238281 -9.253906 13.9375 -7.410156 15.5 -5.578125 C 17.0625 -3.753906 18.613281 -1.8125 20.15625 0.25 L 18.015625 1.78125 C 17.609375 1.101562 17.15625 0.394531 16.65625 -0.34375 C 16.15625 -1.09375 15.671875 -1.785156 15.203125 -2.421875 C 14.898438 -2.847656 14.472656 -3.394531 13.921875 -4.0625 C 13.367188 -4.738281 12.769531 -5.445312 12.125 -6.1875 C 11.488281 -6.9375 10.878906 -7.644531 10.296875 -8.3125 C 9.710938 -8.988281 9.21875 -9.53125 8.8125 -9.9375 C 8.34375 -10.40625 8.019531 -10.769531 7.84375 -11.03125 C 7.675781 -11.300781 7.59375 -11.570312 7.59375 -11.84375 C 7.59375 -12.164062 7.75 -12.535156 8.0625 -12.953125 C 8.375 -13.367188 8.921875 -13.9375 9.703125 -14.65625 C 10.210938 -15.125 10.769531 -15.664062 11.375 -16.28125 C 11.988281 -16.90625 12.609375 -17.554688 13.234375 -18.234375 C 13.859375 -18.910156 14.429688 -19.546875 14.953125 -20.140625 C 15.484375 -20.742188 15.90625 -21.25 16.21875 -21.65625 C 16.5625 -22.125 16.828125 -22.5 17.015625 -22.78125 C 17.210938 -23.070312 17.4375 -23.429688 17.6875 -23.859375 Z M 17.6875 -23.859375 "/></g></g></g><g fill="#000000" fill-opacity="1"><g transform="translate(-0.306184, 109.78366)"><g><path d="M 8.65625 -19.1875 L 8.046875 -21.5 C 8.660156 -21.539062 9.394531 -21.617188 10.25 -21.734375 C 11.101562 -21.847656 12.003906 -21.976562 12.953125 -22.125 C 13.898438 -22.28125 14.820312 -22.445312 15.71875 -22.625 C 16.625 -22.800781 17.421875 -22.96875 18.109375 -23.125 L 18.546875 -23.40625 L 20.25 -21.8125 C 20.414062 -21.644531 20.5 -21.492188 20.5 -21.359375 C 20.5 -21.253906 20.46875 -21.179688 20.40625 -21.140625 C 20.34375 -21.097656 20.269531 -21.054688 20.1875 -21.015625 L 19.828125 -20.859375 C 18.785156 -19.640625 17.90625 -18.617188 17.1875 -17.796875 C 16.476562 -16.984375 15.847656 -16.265625 15.296875 -15.640625 C 14.742188 -15.023438 14.195312 -14.425781 13.65625 -13.84375 C 13.113281 -13.257812 12.476562 -12.582031 11.75 -11.8125 C 12.625 -12.21875 13.375 -12.53125 14 -12.75 C 14.632812 -12.976562 15.226562 -13.140625 15.78125 -13.234375 C 16.332031 -13.328125 16.925781 -13.375 17.5625 -13.375 C 19.03125 -13.375 20.304688 -13.109375 21.390625 -12.578125 C 22.484375 -12.046875 23.332031 -11.304688 23.9375 -10.359375 C 24.539062 -9.410156 24.84375 -8.289062 24.84375 -7 C 24.84375 -5.90625 24.625 -4.875 24.1875 -3.90625 C 23.75 -2.9375 23.109375 -2.09375 22.265625 -1.375 C 20.535156 0.113281 18.160156 0.859375 15.140625 0.859375 C 13.160156 0.859375 11.632812 0.546875 10.5625 -0.078125 C 9.5 -0.703125 8.96875 -1.59375 8.96875 -2.75 C 8.96875 -3.644531 9.304688 -4.394531 9.984375 -5 C 10.671875 -5.601562 11.515625 -5.90625 12.515625 -5.90625 C 13.347656 -5.90625 14.140625 -5.707031 14.890625 -5.3125 C 15.648438 -4.914062 16.285156 -4.367188 16.796875 -3.671875 C 16.984375 -3.410156 17.144531 -3.117188 17.28125 -2.796875 C 17.425781 -2.484375 17.617188 -2 17.859375 -1.34375 C 18.617188 -1.550781 19.210938 -1.757812 19.640625 -1.96875 C 20.066406 -2.1875 20.472656 -2.476562 20.859375 -2.84375 C 22.003906 -3.945312 22.578125 -5.332031 22.578125 -7 C 22.578125 -8.40625 22.101562 -9.535156 21.15625 -10.390625 C 20.207031 -11.253906 18.945312 -11.6875 17.375 -11.6875 C 14.800781 -11.6875 12.128906 -10.625 9.359375 -8.5 C 8.972656 -8.21875 8.59375 -7.921875 8.21875 -7.609375 C 7.851562 -7.304688 7.328125 -6.835938 6.640625 -6.203125 L 5.109375 -7.953125 C 6.023438 -8.742188 6.753906 -9.378906 7.296875 -9.859375 C 7.835938 -10.335938 8.265625 -10.71875 8.578125 -11 C 8.898438 -11.289062 9.171875 -11.550781 9.390625 -11.78125 C 9.617188 -12.019531 9.882812 -12.296875 10.1875 -12.609375 C 10.25 -12.671875 10.921875 -13.421875 12.203125 -14.859375 C 13.492188 -16.296875 15.375 -18.429688 17.84375 -21.265625 L 13.09375 -20.28125 C 12.863281 -20.238281 12.535156 -20.164062 12.109375 -20.0625 C 11.679688 -19.96875 11.234375 -19.859375 10.765625 -19.734375 C 10.296875 -19.609375 9.867188 -19.492188 9.484375 -19.390625 C 9.097656 -19.296875 8.820312 -19.226562 8.65625 -19.1875 Z M 15.71875 -0.984375 C 15.394531 -2.160156 14.976562 -3.007812 14.46875 -3.53125 C 13.957031 -4.050781 13.304688 -4.3125 12.515625 -4.3125 C 12.003906 -4.3125 11.582031 -4.171875 11.25 -3.890625 C 10.925781 -3.617188 10.765625 -3.28125 10.765625 -2.875 C 10.765625 -2.28125 11.109375 -1.8125 11.796875 -1.46875 C 12.492188 -1.125 13.445312 -0.953125 14.65625 -0.953125 C 14.820312 -0.953125 14.953125 -0.953125 15.046875 -0.953125 C 15.148438 -0.953125 15.375 -0.960938 15.71875 -0.984375 Z M 15.71875 -0.984375 "/></g></g></g></svg>