<svg xmlns="http://www.w3.org/2000/svg" xmlns:xlink="http://www.w3.org/1999/xlink" width="150" zoomAndPan="magnify" viewBox="0 0 112.5 112.499997" height="150" preserveAspectRatio="xMidYMid meet" version="1.0"><defs><g/><clipPath id="dd82835429"><path d="M 1.351562 1.351562 L 110.210938 1.351562 L 110.210938 110.210938 L 1.351562 110.210938 Z M 1.351562 1.351562 " clip-rule="nonzero"/></clipPath><clipPath id="459579a8c3"><path d="M 55.78125 1.351562 C 25.71875 1.351562 1.351562 25.71875 1.351562 55.78125 C 1.351562 85.839844 25.71875 110.210938 55.78125 110.210938 C 85.839844 110.210938 110.210938 85.839844 110.210938 55.78125 C 110.210938 25.71875 85.839844 1.351562 55.78125 1.351562 Z M 55.78125 1.351562 " clip-rule="nonzero"/></clipPath></defs><g clip-path="url(#dd82835429)"><g clip-path="url(#459579a8c3)"><path fill="#fff600" d="M 1.351562 1.351562 L 110.210938 1.351562 L 110.210938 110.210938 L 1.351562 110.210938 Z M 1.351562 1.351562 " fill-opacity="1" fill-rule="nonzero"/></g></g><g fill="#000000" fill-opacity="1"><g transform="translate(36.018999, 38.537365)"><g><path d="M 3.015625 -6.9375 L 8.046875 -6.9375 L 8.046875 -5.828125 L 3.015625 -5.828125 L 3.015625 0 L 1.734375 0 L 1.734375 -12.3125 L 8.453125 -12.3125 L 8.453125 -11.234375 L 3.015625 -11.234375 Z M 3.015625 -6.9375 "/></g></g></g><g fill="#000000" fill-opacity="1"><g transform="translate(45.269158, 38.537365)"><g><path d="M 1.34375 -8.71875 L 2.484375 -8.71875 C 2.554688 -8.507812 2.601562 -8.316406 2.625 -8.140625 C 2.65625 -7.960938 2.671875 -7.738281 2.671875 -7.46875 C 2.671875 -7.34375 2.664062 -7.226562 2.65625 -7.125 C 2.65625 -7.019531 2.644531 -6.882812 2.625 -6.71875 C 2.738281 -7.039062 2.835938 -7.289062 2.921875 -7.46875 C 3.015625 -7.644531 3.125 -7.8125 3.25 -7.96875 C 3.738281 -8.632812 4.328125 -8.96875 5.015625 -8.96875 C 5.472656 -8.96875 5.804688 -8.90625 6.015625 -8.78125 L 6.015625 -7.59375 C 5.796875 -7.6875 5.609375 -7.753906 5.453125 -7.796875 C 5.296875 -7.835938 5.125 -7.859375 4.9375 -7.859375 C 4.15625 -7.859375 3.546875 -7.390625 3.109375 -6.453125 C 2.984375 -6.148438 2.882812 -5.796875 2.8125 -5.390625 C 2.75 -4.992188 2.71875 -4.5 2.71875 -3.90625 L 2.71875 0 L 1.515625 0 L 1.515625 -5.734375 C 1.515625 -6.378906 1.507812 -6.882812 1.5 -7.25 C 1.5 -7.613281 1.484375 -7.898438 1.453125 -8.109375 C 1.429688 -8.316406 1.394531 -8.519531 1.34375 -8.71875 Z M 1.34375 -8.71875 "/></g></g></g><g fill="#000000" fill-opacity="1"><g transform="translate(51.538531, 38.537365)"><g><path d="M 0.984375 -4.375 C 0.984375 -5.28125 1.144531 -6.078125 1.46875 -6.765625 C 1.789062 -7.460938 2.238281 -8.003906 2.8125 -8.390625 C 3.382812 -8.773438 4.046875 -8.96875 4.796875 -8.96875 C 5.546875 -8.96875 6.203125 -8.773438 6.765625 -8.390625 C 7.335938 -8.003906 7.785156 -7.460938 8.109375 -6.765625 C 8.429688 -6.078125 8.59375 -5.28125 8.59375 -4.375 C 8.59375 -3.46875 8.429688 -2.664062 8.109375 -1.96875 C 7.785156 -1.28125 7.335938 -0.738281 6.765625 -0.34375 C 6.203125 0.0390625 5.546875 0.234375 4.796875 0.234375 C 4.046875 0.234375 3.382812 0.0390625 2.8125 -0.34375 C 2.238281 -0.738281 1.789062 -1.28125 1.46875 -1.96875 C 1.144531 -2.664062 0.984375 -3.46875 0.984375 -4.375 Z M 2.21875 -4.375 C 2.21875 -3.664062 2.328125 -3.035156 2.546875 -2.484375 C 2.765625 -1.941406 3.0625 -1.519531 3.4375 -1.21875 C 3.820312 -0.914062 4.273438 -0.765625 4.796875 -0.765625 C 5.304688 -0.765625 5.75 -0.914062 6.125 -1.21875 C 6.507812 -1.519531 6.8125 -1.941406 7.03125 -2.484375 C 7.25 -3.035156 7.359375 -3.664062 7.359375 -4.375 C 7.359375 -5.09375 7.25 -5.71875 7.03125 -6.25 C 6.8125 -6.789062 6.507812 -7.210938 6.125 -7.515625 C 5.75 -7.816406 5.304688 -7.96875 4.796875 -7.96875 C 4.273438 -7.96875 3.820312 -7.816406 3.4375 -7.515625 C 3.0625 -7.210938 2.765625 -6.789062 2.546875 -6.25 C 2.328125 -5.707031 2.21875 -5.082031 2.21875 -4.375 Z M 2.21875 -4.375 "/></g></g></g><g fill="#000000" fill-opacity="1"><g transform="translate(61.096492, 38.537365)"><g><path d="M 1.3125 -8.71875 L 2.46875 -8.71875 C 2.53125 -8.507812 2.570312 -8.320312 2.59375 -8.15625 C 2.613281 -8 2.625 -7.726562 2.625 -7.34375 C 2.726562 -7.53125 2.804688 -7.671875 2.859375 -7.765625 C 2.921875 -7.859375 2.96875 -7.925781 3 -7.96875 C 3.039062 -8.019531 3.085938 -8.082031 3.140625 -8.15625 C 3.390625 -8.414062 3.695312 -8.613281 4.0625 -8.75 C 4.425781 -8.894531 4.820312 -8.96875 5.25 -8.96875 C 6.238281 -8.96875 6.957031 -8.617188 7.40625 -7.921875 C 7.457031 -7.847656 7.492188 -7.773438 7.515625 -7.703125 C 7.546875 -7.640625 7.601562 -7.519531 7.6875 -7.34375 C 8.007812 -7.914062 8.382812 -8.328125 8.8125 -8.578125 C 9.238281 -8.835938 9.773438 -8.96875 10.421875 -8.96875 C 11.484375 -8.96875 12.222656 -8.597656 12.640625 -7.859375 C 12.734375 -7.691406 12.804688 -7.519531 12.859375 -7.34375 C 12.910156 -7.175781 12.941406 -6.941406 12.953125 -6.640625 C 12.972656 -6.335938 12.984375 -5.90625 12.984375 -5.34375 L 12.984375 0 L 11.796875 0 L 11.796875 -5.34375 C 11.796875 -5.738281 11.785156 -6.039062 11.765625 -6.25 C 11.753906 -6.46875 11.734375 -6.644531 11.703125 -6.78125 C 11.671875 -6.914062 11.613281 -7.046875 11.53125 -7.171875 C 11.25 -7.671875 10.742188 -7.921875 10.015625 -7.921875 C 9.203125 -7.921875 8.597656 -7.597656 8.203125 -6.953125 C 7.960938 -6.566406 7.84375 -5.972656 7.84375 -5.171875 L 7.84375 0 L 6.65625 0 L 6.65625 -5.15625 C 6.65625 -5.59375 6.648438 -5.925781 6.640625 -6.15625 C 6.628906 -6.394531 6.609375 -6.578125 6.578125 -6.703125 C 6.554688 -6.828125 6.519531 -6.941406 6.46875 -7.046875 C 6.195312 -7.628906 5.675781 -7.921875 4.90625 -7.921875 C 4.507812 -7.921875 4.148438 -7.832031 3.828125 -7.65625 C 3.503906 -7.488281 3.25 -7.25 3.0625 -6.9375 C 2.820312 -6.519531 2.703125 -5.90625 2.703125 -5.09375 L 2.703125 0 L 1.515625 0 L 1.515625 -6.046875 C 1.515625 -6.515625 1.507812 -6.890625 1.5 -7.171875 C 1.5 -7.453125 1.488281 -7.671875 1.46875 -7.828125 C 1.457031 -7.992188 1.441406 -8.140625 1.421875 -8.265625 C 1.398438 -8.398438 1.363281 -8.550781 1.3125 -8.71875 Z M 1.3125 -8.71875 "/></g></g></g><g fill="#000000" fill-opacity="1"><g transform="translate(25.161609, 61.209585)"><g><path d="M 3.03125 0 L 1.71875 0 L 1.71875 -12.3125 L 3.03125 -12.3125 Z M 3.03125 0 "/></g></g></g><g fill="#000000" fill-opacity="1"><g transform="translate(29.908192, 61.209585)"><g><path d="M 6.640625 -2.59375 L 7.84375 -2.59375 C 7.726562 -1.695312 7.390625 -1 6.828125 -0.5 C 6.273438 -0.0078125 5.554688 0.234375 4.671875 0.234375 C 3.921875 0.234375 3.269531 0.046875 2.71875 -0.328125 C 2.164062 -0.710938 1.734375 -1.25 1.421875 -1.9375 C 1.117188 -2.625 0.96875 -3.425781 0.96875 -4.34375 C 0.96875 -5.289062 1.117188 -6.109375 1.421875 -6.796875 C 1.722656 -7.492188 2.148438 -8.03125 2.703125 -8.40625 C 3.253906 -8.78125 3.910156 -8.96875 4.671875 -8.96875 C 5.523438 -8.96875 6.222656 -8.734375 6.765625 -8.265625 C 7.304688 -7.796875 7.648438 -7.140625 7.796875 -6.296875 L 6.578125 -6.296875 C 6.335938 -7.410156 5.691406 -7.96875 4.640625 -7.96875 C 3.878906 -7.96875 3.28125 -7.644531 2.84375 -7 C 2.414062 -6.363281 2.203125 -5.484375 2.203125 -4.359375 C 2.203125 -3.703125 2.285156 -3.101562 2.453125 -2.5625 C 2.628906 -2.03125 2.882812 -1.601562 3.21875 -1.28125 C 3.59375 -0.9375 4.078125 -0.765625 4.671875 -0.765625 C 5.753906 -0.765625 6.410156 -1.375 6.640625 -2.59375 Z M 6.640625 -2.59375 "/></g></g></g><g fill="#000000" fill-opacity="1"><g transform="translate(38.737152, 61.209585)"><g><path d="M 1.5 -12.375 L 2.6875 -12.375 L 2.6875 -7.5625 C 2.875 -7.8125 2.992188 -7.972656 3.046875 -8.046875 C 3.109375 -8.117188 3.195312 -8.195312 3.3125 -8.28125 C 3.863281 -8.738281 4.519531 -8.96875 5.28125 -8.96875 C 5.800781 -8.96875 6.269531 -8.867188 6.6875 -8.671875 C 7.101562 -8.472656 7.421875 -8.195312 7.640625 -7.84375 C 7.765625 -7.664062 7.851562 -7.472656 7.90625 -7.265625 C 7.96875 -7.054688 8.007812 -6.78125 8.03125 -6.4375 C 8.050781 -6.09375 8.0625 -5.617188 8.0625 -5.015625 L 8.0625 0 L 6.890625 0 L 6.890625 -4.9375 C 6.890625 -5.570312 6.875 -6.023438 6.84375 -6.296875 C 6.8125 -6.566406 6.738281 -6.804688 6.625 -7.015625 C 6.3125 -7.617188 5.773438 -7.921875 5.015625 -7.921875 C 4.179688 -7.921875 3.539062 -7.5625 3.09375 -6.84375 C 2.820312 -6.375 2.6875 -5.691406 2.6875 -4.796875 L 2.6875 0 L 1.5 0 Z M 1.5 -12.375 "/></g></g></g><g fill="#000000" fill-opacity="1"><g transform="translate(48.262706, 61.209585)"><g><path d="M 1.546875 -8.71875 L 2.71875 -8.71875 L 2.71875 0 L 1.546875 0 Z M 1.359375 -12.3125 L 2.921875 -12.3125 L 2.921875 -10.765625 L 1.359375 -10.765625 Z M 1.359375 -12.3125 "/></g></g></g><g fill="#000000" fill-opacity="1"><g transform="translate(52.539488, 61.209585)"><g><path d="M 1.5 -12.375 L 2.6875 -12.375 L 2.6875 -7.5625 C 2.875 -7.8125 2.992188 -7.972656 3.046875 -8.046875 C 3.109375 -8.117188 3.195312 -8.195312 3.3125 -8.28125 C 3.863281 -8.738281 4.519531 -8.96875 5.28125 -8.96875 C 5.800781 -8.96875 6.269531 -8.867188 6.6875 -8.671875 C 7.101562 -8.472656 7.421875 -8.195312 7.640625 -7.84375 C 7.765625 -7.664062 7.851562 -7.472656 7.90625 -7.265625 C 7.96875 -7.054688 8.007812 -6.78125 8.03125 -6.4375 C 8.050781 -6.09375 8.0625 -5.617188 8.0625 -5.015625 L 8.0625 0 L 6.890625 0 L 6.890625 -4.9375 C 6.890625 -5.570312 6.875 -6.023438 6.84375 -6.296875 C 6.8125 -6.566406 6.738281 -6.804688 6.625 -7.015625 C 6.3125 -7.617188 5.773438 -7.921875 5.015625 -7.921875 C 4.179688 -7.921875 3.539062 -7.5625 3.09375 -6.84375 C 2.820312 -6.375 2.6875 -5.691406 2.6875 -4.796875 L 2.6875 0 L 1.5 0 Z M 1.5 -12.375 "/></g></g></g><g fill="#000000" fill-opacity="1"><g transform="translate(62.065042, 61.209585)"><g><path d="M 2.53125 -6.515625 L 1.328125 -6.515625 C 1.421875 -7.316406 1.75 -7.925781 2.3125 -8.34375 C 2.875 -8.757812 3.628906 -8.96875 4.578125 -8.96875 C 5.285156 -8.96875 5.878906 -8.84375 6.359375 -8.59375 C 6.847656 -8.34375 7.175781 -7.992188 7.34375 -7.546875 C 7.425781 -7.316406 7.476562 -7.066406 7.5 -6.796875 C 7.53125 -6.535156 7.546875 -6.128906 7.546875 -5.578125 L 7.546875 -2.265625 C 7.546875 -1.796875 7.550781 -1.425781 7.5625 -1.15625 C 7.570312 -0.894531 7.59375 -0.679688 7.625 -0.515625 C 7.664062 -0.359375 7.710938 -0.1875 7.765625 0 L 6.640625 0 C 6.597656 -0.164062 6.566406 -0.289062 6.546875 -0.375 C 6.523438 -0.46875 6.507812 -0.582031 6.5 -0.71875 C 6.488281 -0.851562 6.472656 -1.054688 6.453125 -1.328125 C 6.304688 -1.054688 6.203125 -0.882812 6.140625 -0.8125 C 6.085938 -0.738281 6 -0.640625 5.875 -0.515625 C 5.375 -0.015625 4.691406 0.234375 3.828125 0.234375 C 2.972656 0.234375 2.289062 0.0078125 1.78125 -0.4375 C 1.269531 -0.894531 1.015625 -1.5 1.015625 -2.25 C 1.015625 -2.988281 1.25 -3.585938 1.71875 -4.046875 C 2.1875 -4.503906 2.925781 -4.875 3.9375 -5.15625 C 4.15625 -5.207031 4.363281 -5.253906 4.5625 -5.296875 C 4.769531 -5.347656 5.015625 -5.398438 5.296875 -5.453125 C 5.578125 -5.515625 5.941406 -5.578125 6.390625 -5.640625 L 6.390625 -6.078125 C 6.390625 -6.421875 6.363281 -6.6875 6.3125 -6.875 C 6.269531 -7.070312 6.191406 -7.25 6.078125 -7.40625 C 5.765625 -7.78125 5.25 -7.96875 4.53125 -7.96875 C 3.363281 -7.96875 2.695312 -7.484375 2.53125 -6.515625 Z M 6.390625 -3.84375 L 6.390625 -4.796875 C 5.359375 -4.609375 4.539062 -4.40625 3.9375 -4.1875 C 3.332031 -3.976562 2.898438 -3.726562 2.640625 -3.4375 C 2.378906 -3.144531 2.25 -2.78125 2.25 -2.34375 C 2.25 -1.882812 2.410156 -1.503906 2.734375 -1.203125 C 3.054688 -0.898438 3.484375 -0.75 4.015625 -0.75 C 4.453125 -0.75 4.84375 -0.84375 5.1875 -1.03125 C 5.539062 -1.226562 5.816406 -1.492188 6.015625 -1.828125 C 6.265625 -2.253906 6.390625 -2.925781 6.390625 -3.84375 Z M 6.390625 -3.84375 "/></g></g></g><g fill="#000000" fill-opacity="1"><g transform="translate(71.088397, 61.209585)"><g><path d="M 1.34375 -8.71875 L 2.484375 -8.71875 C 2.554688 -8.507812 2.601562 -8.316406 2.625 -8.140625 C 2.65625 -7.960938 2.671875 -7.738281 2.671875 -7.46875 C 2.671875 -7.34375 2.664062 -7.226562 2.65625 -7.125 C 2.65625 -7.019531 2.644531 -6.882812 2.625 -6.71875 C 2.738281 -7.039062 2.835938 -7.289062 2.921875 -7.46875 C 3.015625 -7.644531 3.125 -7.8125 3.25 -7.96875 C 3.738281 -8.632812 4.328125 -8.96875 5.015625 -8.96875 C 5.472656 -8.96875 5.804688 -8.90625 6.015625 -8.78125 L 6.015625 -7.59375 C 5.796875 -7.6875 5.609375 -7.753906 5.453125 -7.796875 C 5.296875 -7.835938 5.125 -7.859375 4.9375 -7.859375 C 4.15625 -7.859375 3.546875 -7.390625 3.109375 -6.453125 C 2.984375 -6.148438 2.882812 -5.796875 2.8125 -5.390625 C 2.75 -4.992188 2.71875 -4.5 2.71875 -3.90625 L 2.71875 0 L 1.515625 0 L 1.515625 -5.734375 C 1.515625 -6.378906 1.507812 -6.882812 1.5 -7.25 C 1.5 -7.613281 1.484375 -7.898438 1.453125 -8.109375 C 1.429688 -8.316406 1.394531 -8.519531 1.34375 -8.71875 Z M 1.34375 -8.71875 "/></g></g></g><g fill="#000000" fill-opacity="1"><g transform="translate(77.357771, 61.209585)"><g><path d="M 2.53125 -6.515625 L 1.328125 -6.515625 C 1.421875 -7.316406 1.75 -7.925781 2.3125 -8.34375 C 2.875 -8.757812 3.628906 -8.96875 4.578125 -8.96875 C 5.285156 -8.96875 5.878906 -8.84375 6.359375 -8.59375 C 6.847656 -8.34375 7.175781 -7.992188 7.34375 -7.546875 C 7.425781 -7.316406 7.476562 -7.066406 7.5 -6.796875 C 7.53125 -6.535156 7.546875 -6.128906 7.546875 -5.578125 L 7.546875 -2.265625 C 7.546875 -1.796875 7.550781 -1.425781 7.5625 -1.15625 C 7.570312 -0.894531 7.59375 -0.679688 7.625 -0.515625 C 7.664062 -0.359375 7.710938 -0.1875 7.765625 0 L 6.640625 0 C 6.597656 -0.164062 6.566406 -0.289062 6.546875 -0.375 C 6.523438 -0.46875 6.507812 -0.582031 6.5 -0.71875 C 6.488281 -0.851562 6.472656 -1.054688 6.453125 -1.328125 C 6.304688 -1.054688 6.203125 -0.882812 6.140625 -0.8125 C 6.085938 -0.738281 6 -0.640625 5.875 -0.515625 C 5.375 -0.015625 4.691406 0.234375 3.828125 0.234375 C 2.972656 0.234375 2.289062 0.0078125 1.78125 -0.4375 C 1.269531 -0.894531 1.015625 -1.5 1.015625 -2.25 C 1.015625 -2.988281 1.25 -3.585938 1.71875 -4.046875 C 2.1875 -4.503906 2.925781 -4.875 3.9375 -5.15625 C 4.15625 -5.207031 4.363281 -5.253906 4.5625 -5.296875 C 4.769531 -5.347656 5.015625 -5.398438 5.296875 -5.453125 C 5.578125 -5.515625 5.941406 -5.578125 6.390625 -5.640625 L 6.390625 -6.078125 C 6.390625 -6.421875 6.363281 -6.6875 6.3125 -6.875 C 6.269531 -7.070312 6.191406 -7.25 6.078125 -7.40625 C 5.765625 -7.78125 5.25 -7.96875 4.53125 -7.96875 C 3.363281 -7.96875 2.695312 -7.484375 2.53125 -6.515625 Z M 6.390625 -3.84375 L 6.390625 -4.796875 C 5.359375 -4.609375 4.539062 -4.40625 3.9375 -4.1875 C 3.332031 -3.976562 2.898438 -3.726562 2.640625 -3.4375 C 2.378906 -3.144531 2.25 -2.78125 2.25 -2.34375 C 2.25 -1.882812 2.410156 -1.503906 2.734375 -1.203125 C 3.054688 -0.898438 3.484375 -0.75 4.015625 -0.75 C 4.453125 -0.75 4.84375 -0.84375 5.1875 -1.03125 C 5.539062 -1.226562 5.816406 -1.492188 6.015625 -1.828125 C 6.265625 -2.253906 6.390625 -2.925781 6.390625 -3.84375 Z M 6.390625 -3.84375 "/></g></g></g><g fill="#000000" fill-opacity="1"><g transform="translate(33.845606, 83.881805)"><g><path d="M 10.21875 -9 L 9.046875 -9 C 8.671875 -10.613281 7.703125 -11.421875 6.140625 -11.421875 C 5.390625 -11.421875 4.738281 -11.203125 4.1875 -10.765625 C 3.644531 -10.335938 3.222656 -9.734375 2.921875 -8.953125 C 2.628906 -8.171875 2.484375 -7.238281 2.484375 -6.15625 C 2.484375 -5.070312 2.628906 -4.132812 2.921875 -3.34375 C 3.222656 -2.5625 3.648438 -1.957031 4.203125 -1.53125 C 4.765625 -1.101562 5.421875 -0.890625 6.171875 -0.890625 C 7.046875 -0.890625 7.75 -1.164062 8.28125 -1.71875 C 8.8125 -2.269531 9.128906 -3.0625 9.234375 -4.09375 L 10.4375 -4.09375 C 10.320312 -2.738281 9.894531 -1.679688 9.15625 -0.921875 C 8.425781 -0.171875 7.453125 0.203125 6.234375 0.203125 C 5.191406 0.203125 4.285156 -0.0507812 3.515625 -0.5625 C 2.742188 -1.082031 2.148438 -1.816406 1.734375 -2.765625 C 1.316406 -3.710938 1.109375 -4.832031 1.109375 -6.125 C 1.109375 -7.238281 1.257812 -8.226562 1.5625 -9.09375 C 1.863281 -9.96875 2.3125 -10.6875 2.90625 -11.25 C 3.3125 -11.65625 3.800781 -11.96875 4.375 -12.1875 C 4.945312 -12.414062 5.539062 -12.53125 6.15625 -12.53125 C 7.289062 -12.53125 8.210938 -12.21875 8.921875 -11.59375 C 9.640625 -10.976562 10.070312 -10.113281 10.21875 -9 Z M 10.21875 -9 "/></g></g></g><g fill="#000000" fill-opacity="1"><g transform="translate(45.234151, 83.881805)"><g><path d="M 1.5 -12.375 L 2.6875 -12.375 L 2.6875 -7.5625 C 2.875 -7.8125 2.992188 -7.972656 3.046875 -8.046875 C 3.109375 -8.117188 3.195312 -8.195312 3.3125 -8.28125 C 3.863281 -8.738281 4.519531 -8.96875 5.28125 -8.96875 C 5.800781 -8.96875 6.269531 -8.867188 6.6875 -8.671875 C 7.101562 -8.472656 7.421875 -8.195312 7.640625 -7.84375 C 7.765625 -7.664062 7.851562 -7.472656 7.90625 -7.265625 C 7.96875 -7.054688 8.007812 -6.78125 8.03125 -6.4375 C 8.050781 -6.09375 8.0625 -5.617188 8.0625 -5.015625 L 8.0625 0 L 6.890625 0 L 6.890625 -4.9375 C 6.890625 -5.570312 6.875 -6.023438 6.84375 -6.296875 C 6.8125 -6.566406 6.738281 -6.804688 6.625 -7.015625 C 6.3125 -7.617188 5.773438 -7.921875 5.015625 -7.921875 C 4.179688 -7.921875 3.539062 -7.5625 3.09375 -6.84375 C 2.820312 -6.375 2.6875 -5.691406 2.6875 -4.796875 L 2.6875 0 L 1.5 0 Z M 1.5 -12.375 "/></g></g></g><g fill="#000000" fill-opacity="1"><g transform="translate(54.759705, 83.881805)"><g><path d="M 1.546875 -8.71875 L 2.71875 -8.71875 L 2.71875 0 L 1.546875 0 Z M 1.359375 -12.3125 L 2.921875 -12.3125 L 2.921875 -10.765625 L 1.359375 -10.765625 Z M 1.359375 -12.3125 "/></g></g></g><g fill="#000000" fill-opacity="1"><g transform="translate(59.036487, 83.881805)"><g><path d="M 1.5 -12.375 L 2.6875 -12.375 L 2.6875 -7.296875 C 2.875 -7.585938 3 -7.78125 3.0625 -7.875 C 3.132812 -7.96875 3.226562 -8.070312 3.34375 -8.1875 C 3.863281 -8.707031 4.507812 -8.96875 5.28125 -8.96875 C 5.945312 -8.96875 6.535156 -8.773438 7.046875 -8.390625 C 7.554688 -8.015625 7.953125 -7.484375 8.234375 -6.796875 C 8.515625 -6.109375 8.65625 -5.304688 8.65625 -4.390625 C 8.65625 -3.472656 8.507812 -2.664062 8.21875 -1.96875 C 7.925781 -1.269531 7.515625 -0.726562 6.984375 -0.34375 C 6.453125 0.0390625 5.835938 0.234375 5.140625 0.234375 C 4.304688 0.234375 3.632812 -0.0546875 3.125 -0.640625 C 3.050781 -0.734375 2.988281 -0.816406 2.9375 -0.890625 C 2.894531 -0.972656 2.789062 -1.148438 2.625 -1.421875 C 2.632812 -1.242188 2.640625 -1.132812 2.640625 -1.09375 C 2.640625 -1.050781 2.640625 -1.015625 2.640625 -0.984375 C 2.640625 -0.640625 2.59375 -0.3125 2.5 0 L 1.375 0 C 1.414062 -0.164062 1.441406 -0.335938 1.453125 -0.515625 C 1.472656 -0.703125 1.484375 -0.945312 1.484375 -1.25 C 1.492188 -1.550781 1.5 -1.945312 1.5 -2.4375 Z M 5.140625 -7.953125 C 4.648438 -7.953125 4.21875 -7.800781 3.84375 -7.5 C 3.476562 -7.195312 3.191406 -6.769531 2.984375 -6.21875 C 2.773438 -5.675781 2.671875 -5.046875 2.671875 -4.328125 C 2.671875 -3.265625 2.890625 -2.410156 3.328125 -1.765625 C 3.765625 -1.117188 4.34375 -0.796875 5.0625 -0.796875 C 5.78125 -0.796875 6.351562 -1.117188 6.78125 -1.765625 C 7.21875 -2.421875 7.4375 -3.296875 7.4375 -4.390625 C 7.4375 -5.484375 7.226562 -6.347656 6.8125 -6.984375 C 6.394531 -7.628906 5.835938 -7.953125 5.140625 -7.953125 Z M 5.140625 -7.953125 "/></g></g></g><g fill="#000000" fill-opacity="1"><g transform="translate(68.675447, 83.881805)"><g><path d="M 2.53125 -6.515625 L 1.328125 -6.515625 C 1.421875 -7.316406 1.75 -7.925781 2.3125 -8.34375 C 2.875 -8.757812 3.628906 -8.96875 4.578125 -8.96875 C 5.285156 -8.96875 5.878906 -8.84375 6.359375 -8.59375 C 6.847656 -8.34375 7.175781 -7.992188 7.34375 -7.546875 C 7.425781 -7.316406 7.476562 -7.066406 7.5 -6.796875 C 7.53125 -6.535156 7.546875 -6.128906 7.546875 -5.578125 L 7.546875 -2.265625 C 7.546875 -1.796875 7.550781 -1.425781 7.5625 -1.15625 C 7.570312 -0.894531 7.59375 -0.679688 7.625 -0.515625 C 7.664062 -0.359375 7.710938 -0.1875 7.765625 0 L 6.640625 0 C 6.597656 -0.164062 6.566406 -0.289062 6.546875 -0.375 C 6.523438 -0.46875 6.507812 -0.582031 6.5 -0.71875 C 6.488281 -0.851562 6.472656 -1.054688 6.453125 -1.328125 C 6.304688 -1.054688 6.203125 -0.882812 6.140625 -0.8125 C 6.085938 -0.738281 6 -0.640625 5.875 -0.515625 C 5.375 -0.015625 4.691406 0.234375 3.828125 0.234375 C 2.972656 0.234375 2.289062 0.0078125 1.78125 -0.4375 C 1.269531 -0.894531 1.015625 -1.5 1.015625 -2.25 C 1.015625 -2.988281 1.25 -3.585938 1.71875 -4.046875 C 2.1875 -4.503906 2.925781 -4.875 3.9375 -5.15625 C 4.15625 -5.207031 4.363281 -5.253906 4.5625 -5.296875 C 4.769531 -5.347656 5.015625 -5.398438 5.296875 -5.453125 C 5.578125 -5.515625 5.941406 -5.578125 6.390625 -5.640625 L 6.390625 -6.078125 C 6.390625 -6.421875 6.363281 -6.6875 6.3125 -6.875 C 6.269531 -7.070312 6.191406 -7.25 6.078125 -7.40625 C 5.765625 -7.78125 5.25 -7.96875 4.53125 -7.96875 C 3.363281 -7.96875 2.695312 -7.484375 2.53125 -6.515625 Z M 6.390625 -3.84375 L 6.390625 -4.796875 C 5.359375 -4.609375 4.539062 -4.40625 3.9375 -4.1875 C 3.332031 -3.976562 2.898438 -3.726562 2.640625 -3.4375 C 2.378906 -3.144531 2.25 -2.78125 2.25 -2.34375 C 2.25 -1.882812 2.410156 -1.503906 2.734375 -1.203125 C 3.054688 -0.898438 3.484375 -0.75 4.015625 -0.75 C 4.453125 -0.75 4.84375 -0.84375 5.1875 -1.03125 C 5.539062 -1.226562 5.816406 -1.492188 6.015625 -1.828125 C 6.265625 -2.253906 6.390625 -2.925781 6.390625 -3.84375 Z M 6.390625 -3.84375 "/></g></g></g></svg>